<svg width="96" height="96" xmlns="http://www.w3.org/2000/svg">

 <g>
  <title>background</title>
  <rect fill="none" id="canvas_background" height="402" width="582" y="-1" x="-1"/>
 </g>
 <g>
  <title fill="#4c89c8">Layer 1</title>
  <g id="Слой_2">
   <g id="svg_1">
    <path id="svg_2" fill="#4c89c8" d="m74.035,36.908c-0.699,-0.698 -1.834,-0.698 -2.531,0.001c-0.699,0.699 -0.699,1.833 0,2.531l12.756,12.747c2.021,2.028 2.023,5.327 0.006,7.352l-24.726,24.713c-2.025,2.021 -5.321,2.023 -7.347,0.006l-12.755,-12.75c-0.699,-0.699 -1.833,-0.699 -2.532,0c-0.699,0.699 -0.698,1.833 0,2.531l12.758,12.753c1.71,1.703 3.954,2.554 6.198,2.554c2.248,0 4.496,-0.854 6.207,-2.562l24.729,-24.717c3.408,-3.421 3.406,-8.986 -0.006,-12.41l-12.757,-12.749z"/>
    <path id="svg_3" fill="#4c89c8" d="m56.165,74.729c-0.184,0.185 -0.392,0.213 -0.501,0.213c-0.13,-0.001 -0.32,-0.036 -0.496,-0.215l-9.474,-9.469c-0.698,-0.699 -1.832,-0.699 -2.531,0c-0.699,0.699 -0.698,1.833 0.001,2.531l9.465,9.461c0.808,0.817 1.884,1.27 3.03,1.271c0.002,0 0.004,0 0.006,0c1.147,0 2.228,-0.451 3.036,-1.266l18.56,-18.559c0.815,-0.814 1.264,-1.895 1.262,-3.042c-0.001,-1.145 -0.45,-2.221 -1.261,-3.026l-9.467,-9.47c-0.699,-0.7 -1.832,-0.699 -2.531,-0.001c-0.699,0.699 -0.699,1.833 0,2.531l9.471,9.475c0.172,0.171 0.209,0.364 0.209,0.496c0,0.109 -0.027,0.319 -0.213,0.505l-18.566,18.565z"/>
    <path id="svg_4" fill="#4c89c8" d="m94.266,1.734c-0.699,-0.699 -1.832,-0.699 -2.531,0l-26.44,26.44l-19.231,-19.223c-1.536,-1.54 -6.817,-2.276 -15.733,-2.306c-2.916,0.003 -17.6,0.158 -20.307,2.883l-0.492,0.48c-0.061,0.061 -0.116,0.15 -0.175,0.222c-4.325,-2.547 -4.234,-4.745 -4.163,-6.292c0.046,-0.987 -0.717,-1.825 -1.705,-1.871c-0.98,-0.021 -1.825,0.718 -1.871,1.705c-0.195,4.222 1.699,7.216 6.385,9.817c-0.965,4.067 -1.253,10.31 -1.331,14.414c-0.109,5.786 0.041,15.825 2.277,18.06l19.222,19.235l-26.437,26.436c-0.699,0.699 -0.699,1.832 0,2.531c0.349,0.35 0.808,0.525 1.266,0.525s0.916,-0.175 1.266,-0.524l90,-90c0.699,-0.7 0.699,-1.832 0,-2.532zm-82.743,41.846c-1.767,-2.476 -1.686,-21.21 -0.304,-28.442c0.063,0.026 0.121,0.054 0.185,0.081c1.459,0.609 2.603,1.284 3.405,1.981c-0.759,1.204 -1.172,2.596 -1.172,4.052c0,2.034 0.793,3.943 2.228,5.371c1.44,1.446 3.353,2.242 5.388,2.242c2.033,0 3.944,-0.795 5.375,-2.234c1.437,-1.431 2.23,-3.337 2.233,-5.368c0.003,-2.038 -0.789,-3.955 -2.229,-5.398c-1.437,-1.441 -3.348,-2.235 -5.382,-2.235c-1.385,0 -2.709,0.376 -3.869,1.066c-1.125,-1.036 -2.649,-1.963 -4.574,-2.769c3.998,-2.032 27.94,-2.425 30.724,-0.444l19.231,19.225l-3.71,3.709l-13.933,-13.938c-0.809,-0.813 -1.887,-1.261 -3.033,-1.261c-1.146,0 -2.224,0.448 -3.03,1.258l-18.562,18.569c-0.818,0.809 -1.269,1.886 -1.269,3.035c0,1.149 0.45,2.229 1.262,3.033l13.933,13.936l-3.717,3.717l-19.18,-19.186zm7.969,-25.64c-0.025,-0.088 -0.067,-0.172 -0.096,-0.259c0.568,-0.298 1.195,-0.473 1.854,-0.473c1.075,0 2.086,0.42 2.847,1.184c0.765,0.766 1.185,1.783 1.184,2.864c-0.002,1.074 -0.421,2.082 -1.186,2.843c-0.76,0.764 -1.77,1.185 -2.843,1.185c-1.076,0 -2.088,-0.422 -2.857,-1.194c-0.152,-0.152 -0.281,-0.32 -0.405,-0.491c0.198,-0.171 0.378,-0.352 0.521,-0.551c0.523,-0.721 1.667,-2.662 0.981,-5.108zm17.459,38.578l-13.939,-13.942c-0.181,-0.179 -0.208,-0.386 -0.208,-0.494c0,-0.107 0.027,-0.313 0.213,-0.498l18.573,-18.579c0.179,-0.18 0.388,-0.207 0.496,-0.207c0.108,0 0.316,0.027 0.499,0.21l13.937,13.939l-19.571,19.571z"/>
   </g>
  </g>
 </g>
</svg>